<svg xmlns="http://www.w3.org/2000/svg" width="919" height="889" viewBox="0 0 919 889">
<g>
<path d="M 846.63 443.37 C839.24,446.88 828.08,444.44 822.79,438.17 C819.17,433.86 818.33,430.52 816.99,415.00 C814.91,390.97 809.09,365.10 801.37,345.57 C796.27,332.66 784.50,310.12 776.76,298.46 C737.55,239.36 674.22,199.45 605.50,190.55 C598.90,189.70 585.55,188.59 575.84,188.09 C561.77,187.36 557.26,186.77 553.66,185.18 C542.68,180.32 539.85,164.93 548.19,155.44 C553.92,148.91 555.37,148.55 576.00,148.67 C630.20,148.97 681.77,164.50 727.13,194.16 C802.82,243.67 849.91,322.76 856.97,412.25 C858.16,427.27 857.28,433.00 852.99,438.20 C851.38,440.15 848.52,442.47 846.63,443.37 ZM 771.70 438.27 C760.54,444.07 746.43,437.88 743.68,426.00 C743.36,424.62 742.36,417.42 741.46,410.00 C738.55,386.00 732.70,367.44 721.84,347.77 C706.29,319.59 683.08,296.79 655.00,282.12 C631.20,269.68 613.03,264.89 582.82,263.08 C567.07,262.14 563.29,261.21 558.64,257.13 C553.69,252.78 551.47,242.19 554.06,235.32 C555.38,231.82 559.54,227.36 563.50,225.16 C568.07,222.63 597.40,223.08 613.50,225.93 C678.13,237.37 732.82,278.56 761.67,337.50 C774.56,363.85 783.10,399.60 781.83,421.99 C781.50,427.86 780.99,429.44 778.42,432.62 C776.75,434.68 773.73,437.22 771.70,438.27 ZM 590.06 493.71 C584.64,495.56 581.41,495.94 571.50,495.88 C558.06,495.81 552.77,494.68 543.36,489.85 C526.26,481.08 514.15,465.30 510.43,446.94 C506.29,426.50 512.59,405.28 527.08,390.86 C534.99,383.00 540.32,379.70 551.33,375.87 C558.51,373.37 560.93,373.03 571.32,373.01 C581.33,373.00 584.30,373.39 590.65,375.52 C611.61,382.55 627.91,400.79 632.05,421.83 C633.68,430.16 632.75,445.61 630.09,454.07 C624.70,471.26 608.31,487.49 590.06,493.71 ZM 693.50 434.88 C687.26,436.61 683.66,436.22 677.91,433.22 C670.89,429.55 668.31,424.62 666.45,411.31 C663.38,389.39 656.89,376.04 642.36,361.76 C626.74,346.41 612.83,340.30 588.27,338.01 C575.54,336.83 572.69,335.98 568.62,332.19 C560.61,324.70 560.00,311.98 567.30,304.17 C571.54,299.63 574.08,299.00 588.20,299.01 C604.00,299.02 611.45,300.09 623.40,304.09 C654.67,314.54 679.71,336.53 694.48,366.50 C703.16,384.12 708.90,411.44 706.08,421.75 C704.57,427.29 698.66,433.46 693.50,434.88 ZM 386.17 843.91 C371.24,851.53 353.62,841.55 353.63,825.50 C353.64,807.42 377.45,798.39 390.55,811.50 C398.39,819.34 399.06,829.67 392.30,838.76 C390.97,840.55 388.21,842.87 386.17,843.91 ZM 656.44 845.91 C650.74,847.35 649.47,847.27 643.20,845.10 C633.66,841.81 628.99,835.63 629.01,826.30 C629.02,818.34 633.11,811.09 639.27,808.11 C644.13,805.76 654.78,805.21 659.68,807.06 C666.49,809.63 671.96,818.07 671.96,826.00 C671.96,835.15 665.31,843.68 656.44,845.91 ZM 705.75 838.00 L 705.50 845.50 L 700.75 845.80 L 696.00 846.11 L 696.00 806.00 L 700.75 806.05 L 705.50 806.10 L 714.00 816.79 L 722.50 827.49 L 722.78 816.75 L 723.07 806.00 L 734.00 806.00 L 734.00 846.00 L 729.56 846.00 C725.16,846.00 725.07,845.94 716.95,836.00 C712.45,830.50 708.38,826.00 707.91,826.00 C706.66,826.00 706.04,829.44 705.75,838.00 ZM 302.00 835.92 L 302.00 846.00 L 297.47 846.00 C294.72,846.00 292.79,845.51 292.55,844.75 C292.34,844.06 291.93,835.06 291.65,824.75 L 291.14 806.00 L 295.82 806.01 L 300.50 806.02 L 308.48 816.01 C312.88,821.51 316.76,826.00 317.11,826.00 C318.16,826.00 319.00,820.19 319.00,812.88 L 319.00 806.00 L 329.00 806.00 L 329.00 846.00 L 324.58 846.00 C320.20,846.00 320.09,845.92 312.31,836.33 C308.00,831.01 303.91,826.47 303.23,826.24 C302.31,825.94 302.00,828.36 302.00,835.92 ZM 238.00 835.42 L 238.00 846.00 L 228.00 846.00 L 228.00 806.00 L 231.74 806.00 C235.05,806.00 236.11,806.70 240.99,812.12 C244.02,815.49 248.40,820.33 250.73,822.87 L 254.95 827.50 L 255.00 806.00 L 265.00 806.00 L 265.00 846.00 L 261.93 846.00 C257.30,846.00 255.63,844.71 247.34,834.71 C243.14,829.64 239.32,825.35 238.85,825.17 C238.38,824.98 238.00,829.60 238.00,835.42 ZM 485.66 843.25 C484.20,845.60 483.29,846.00 479.37,846.00 C475.42,846.00 474.88,845.76 475.43,844.25 C475.79,843.29 479.55,834.31 483.79,824.29 L 491.50 806.08 L 497.00 806.07 L 502.50 806.05 L 511.06 825.78 L 519.62 845.50 L 516.67 845.82 C511.66,846.37 509.04,845.16 507.29,841.47 L 505.63 838.00 L 498.01 838.00 C489.94,838.00 488.54,838.59 485.66,843.25 ZM 442.74 844.75 C442.20,845.44 439.80,846.00 437.40,846.00 C433.97,846.00 432.74,845.52 431.62,843.75 C429.75,840.80 416.00,808.46 416.00,807.01 C416.00,806.29 417.87,806.00 421.25,806.20 C425.38,806.44 426.68,806.93 427.34,808.50 C427.80,809.60 430.05,814.96 432.34,820.42 C434.63,825.87 436.99,830.50 437.58,830.70 C438.18,830.89 440.92,825.76 443.67,819.28 L 448.68 807.50 L 453.39 806.63 C455.98,806.16 458.30,805.97 458.56,806.22 C459.07,806.74 444.26,842.81 442.74,844.75 ZM 559.00 814.00 L 559.00 846.00 L 548.00 846.00 L 548.00 814.00 L 536.00 814.00 L 536.00 806.00 L 571.00 806.00 L 571.00 814.00 ZM 644.76 836.43 C649.53,839.02 653.79,838.41 657.60,834.60 C660.64,831.56 661.00,830.62 661.00,825.70 C661.00,820.66 660.71,819.95 657.47,817.10 C651.66,812.01 644.11,813.32 640.75,820.01 C637.57,826.36 639.30,833.47 644.76,836.43 ZM 370.21 836.49 C374.47,838.34 376.44,838.34 380.03,836.48 C383.59,834.64 386.00,830.29 386.00,825.70 C386.00,821.48 382.33,815.84 378.77,814.59 C375.15,813.31 368.43,815.41 366.45,818.44 C362.37,824.66 364.30,833.92 370.21,836.49 ZM 201.00 806.00 L 201.00 846.00 L 191.00 846.00 L 191.00 806.00 ZM 604.00 806.00 L 604.00 846.00 L 594.00 846.00 L 594.00 806.00 ZM 492.00 828.94 C492.00,829.55 494.13,830.00 497.00,830.00 C499.87,830.00 502.00,829.55 502.00,828.94 C502.00,827.17 497.81,818.00 497.00,818.00 C496.19,818.00 492.00,827.17 492.00,828.94 ZM 305.00 529.00 C305.00,529.55 304.55,530.00 304.00,530.00 C303.45,530.00 303.00,529.55 303.00,529.00 C303.00,528.45 303.45,528.00 304.00,528.00 C304.55,528.00 305.00,528.45 305.00,529.00 Z" fill="rgb(5,90,40)"/>
<path d="M 416.39 643.42 C384.00,643.75 346.25,644.17 332.50,644.37 C257.64,645.45 216.10,641.07 176.95,627.98 C113.60,606.81 71.86,559.26 55.36,489.50 C52.58,477.75 52.53,476.89 52.51,448.00 L 52.50 418.50 L 56.30 403.70 C66.97,362.15 85.11,332.21 115.93,305.26 C127.22,295.40 139.59,287.35 155.50,279.53 C183.07,265.97 212.50,258.68 248.50,256.46 L 259.50 255.79 L 262.42 262.64 C264.03,266.41 268.59,275.35 272.55,282.50 C283.08,301.50 287.26,310.15 286.33,311.01 C285.87,311.44 275.83,312.30 264.00,312.93 C210.46,315.78 192.58,319.93 169.50,334.84 C158.88,341.70 133.72,367.45 127.71,377.59 C120.98,388.95 116.37,400.08 112.74,413.75 C109.67,425.27 109.61,425.94 109.63,448.00 C109.65,469.88 109.73,470.82 112.70,482.05 C119.79,508.84 131.26,529.15 149.47,547.19 C176.26,573.71 206.69,583.97 268.00,587.13 C289.43,588.24 397.99,587.71 430.61,586.34 L 445.71 585.70 L 449.74 591.10 C453.91,596.68 478.00,639.05 478.00,640.80 C478.00,641.34 477.39,642.02 476.64,642.31 C475.89,642.59 448.78,643.10 416.39,643.42 ZM 725.50 640.97 C718.57,641.55 669.32,641.98 608.92,641.98 L 504.34 642.00 L 497.34 634.75 C493.49,630.76 488.42,624.20 486.08,620.18 C481.68,612.60 470.01,589.07 470.00,587.75 C470.00,587.34 509.71,586.97 558.25,586.94 C661.26,586.86 708.88,585.88 723.82,583.52 C744.90,580.20 759.20,574.70 770.71,565.51 C793.64,547.19 806.71,510.66 801.75,478.75 L 800.40 470.00 L 802.95 470.01 C806.15,470.03 857.09,477.75 857.64,478.30 C858.83,479.49 859.09,495.95 858.07,505.50 C854.90,535.16 846.37,559.21 831.39,580.70 C824.22,590.98 809.98,605.97 800.92,612.79 C779.70,628.74 753.07,638.69 725.50,640.97 ZM 455.64 542.51 C454.06,543.33 452.71,543.96 452.64,543.90 C452.56,543.85 450.57,543.19 448.20,542.45 C444.76,541.37 422.01,540.98 332.70,540.51 C211.76,539.86 162.81,539.12 160.83,537.90 C158.64,536.54 160.55,535.88 168.40,535.29 C172.58,534.97 176.00,534.25 176.00,533.68 C176.00,531.16 179.25,529.10 182.27,529.70 C184.62,530.17 185.13,530.02 184.50,529.00 C183.88,527.99 184.25,527.85 186.09,528.38 C191.09,529.81 195.88,529.75 196.46,528.25 C196.76,527.45 197.66,527.04 198.44,527.34 C199.23,527.64 200.03,527.42 200.22,526.84 C200.43,526.21 202.05,526.62 204.25,527.86 L 207.94 529.93 L 209.46 527.76 C213.16,522.47 214.31,516.09 213.61,504.57 C213.02,494.67 212.57,492.72 209.38,486.07 C205.07,477.08 203.55,469.95 201.94,451.14 L 200.71 436.78 L 203.85 434.32 C205.58,432.96 207.00,431.13 207.00,430.24 C207.00,428.98 206.39,429.20 204.25,431.19 C202.74,432.60 200.53,434.25 199.34,434.86 C197.83,435.64 197.34,436.59 197.72,438.02 C198.29,440.21 195.35,444.33 193.87,443.42 C193.39,443.12 193.00,441.79 193.00,440.45 C193.00,438.62 192.07,437.58 189.25,436.25 C184.81,434.17 184.07,431.47 186.54,426.28 C187.47,424.32 188.46,420.98 188.75,418.86 C189.26,415.03 189.24,415.00 185.82,415.00 C183.93,415.00 181.51,414.33 180.44,413.52 C178.76,412.23 178.70,411.90 180.00,410.99 C181.37,410.03 184.14,410.07 187.99,411.10 C188.95,411.36 190.21,409.99 191.54,407.24 C192.67,404.90 194.36,402.21 195.30,401.27 C196.90,399.67 197.00,399.73 197.00,402.23 C197.00,405.44 198.35,406.49 199.97,404.54 C202.49,401.50 219.00,397.53 219.00,399.97 C219.00,400.57 218.21,401.31 217.25,401.62 C210.62,403.71 207.62,405.66 206.36,408.68 L 206.31 408.80 C205.43,410.91 204.98,411.98 205.29,412.29 C205.62,412.62 206.77,412.11 209.12,411.07 L 209.25 411.01 C212.79,409.45 214.29,409.30 218.18,410.13 C223.04,411.17 226.01,413.45 224.41,414.91 C222.95,416.23 216.94,418.00 213.91,418.00 C212.37,418.00 210.84,418.45 210.50,419.00 C210.15,419.56 210.97,420.00 212.37,420.00 C215.12,420.00 216.28,421.31 222.98,431.96 C226.91,438.19 227.62,438.87 228.69,437.41 C229.72,435.99 230.75,435.87 235.21,436.61 C238.12,437.09 247.73,437.49 256.57,437.49 C272.49,437.50 272.67,437.52 276.20,440.21 C281.08,443.92 285.01,451.02 286.28,458.41 C287.22,463.93 287.04,465.84 284.52,476.33 L 281.70 488.06 L 283.87 495.95 C285.97,503.61 285.98,504.11 284.43,513.09 C282.42,524.72 283.03,526.48 289.42,527.44 C293.67,528.07 294.00,528.34 294.00,531.06 C294.00,534.91 296.15,534.89 300.30,531.00 C301.41,529.97 302.33,529.20 303.04,528.72 C303.01,528.81 303.00,528.90 303.00,529.00 C303.00,529.55 303.45,530.00 304.00,530.00 C304.31,530.00 304.59,529.86 304.77,529.64 C304.76,529.67 304.75,529.71 304.74,529.75 C303.42,534.42 303.45,534.50 307.00,534.79 C310.26,535.07 310.62,534.80 312.36,530.79 C313.38,528.43 314.58,523.80 315.03,520.50 C316.27,511.31 318.46,465.13 317.69,464.36 C317.32,463.98 315.22,464.27 313.04,464.99 C309.61,466.12 308.47,466.07 304.73,464.64 C296.37,461.45 288.68,450.30 285.53,436.82 C284.32,431.60 284.29,430.28 285.38,429.19 C288.35,426.22 305.68,434.78 313.45,443.07 C317.56,447.45 317.96,447.63 323.21,447.54 C328.43,447.46 328.92,447.22 333.64,442.37 C339.02,436.84 351.60,430.13 358.24,429.24 C362.81,428.63 362.91,429.26 359.96,439.89 C357.51,448.75 355.86,452.13 351.20,457.88 C346.40,463.81 340.06,466.63 334.98,465.11 C334.68,465.02 334.38,464.93 334.11,464.85 C332.16,464.25 330.90,463.87 330.13,464.31 C328.73,465.11 328.87,468.59 329.27,478.31 C329.30,479.09 329.33,479.90 329.37,480.75 C330.34,505.09 331.96,527.18 332.96,529.61 C333.75,531.52 334.32,531.65 338.67,530.98 C341.32,530.57 345.62,530.33 348.21,530.44 C351.36,530.58 353.09,530.21 353.43,529.33 C354.00,527.84 359.65,528.21 362.91,529.95 C364.97,531.05 365.33,530.78 367.52,526.50 C369.12,523.38 373.07,523.34 375.52,526.42 C377.26,528.61 378.12,528.93 380.84,528.38 C382.61,528.03 384.52,526.90 385.07,525.87 C386.32,523.54 390.30,523.44 392.13,525.69 C393.33,527.16 393.28,527.29 391.75,526.72 C389.58,525.91 389.53,526.88 391.57,529.79 C392.99,531.82 395.75,532.02 394.50,530.01 C393.86,528.96 396.74,528.29 399.63,528.81 C401.25,529.10 401.63,529.71 401.23,531.34 C400.84,532.90 401.94,532.17 405.17,528.75 C410.25,523.35 411.65,522.95 413.01,526.52 C413.86,528.76 414.19,528.90 416.01,527.77 C417.71,526.72 418.22,526.75 419.00,528.00 C419.73,529.16 420.35,529.25 421.72,528.40 C424.05,526.95 424.61,518.40 422.68,513.78 C421.60,511.19 420.35,510.12 417.34,509.22 C411.54,507.48 405.10,501.48 402.34,495.24 C399.06,487.81 394.09,485.47 381.75,485.56 C371.76,485.63 371.23,485.06 375.50,478.79 C376.88,476.76 378.00,474.64 378.00,474.07 C378.00,472.46 373.55,471.73 366.47,472.18 C360.89,472.54 360.00,472.36 360.00,470.90 C360.00,469.04 365.86,463.48 369.62,461.76 C373.02,460.21 372.57,458.34 368.25,456.11 C365.09,454.47 364.79,454.05 366.33,453.44 C367.33,453.05 371.27,453.02 375.08,453.37 C380.70,453.89 382.00,453.75 382.00,452.59 C382.00,451.05 375.31,448.23 370.58,447.78 C368.97,447.63 367.48,446.96 367.26,446.30 C366.78,444.83 373.17,441.51 378.25,440.59 C384.13,439.52 382.49,437.00 375.92,437.00 C374.31,437.00 373.00,436.59 373.00,436.09 C373.00,435.08 381.38,432.00 384.14,432.00 C385.13,432.00 386.39,431.14 386.96,430.08 C389.12,426.04 399.84,426.31 404.86,430.53 C408.28,433.41 409.62,437.70 411.44,451.54 C412.21,457.43 413.35,462.75 413.97,463.37 C415.74,465.13 423.93,464.49 430.16,462.10 C442.60,457.32 445.38,453.48 449.02,436.00 C450.23,430.23 452.08,422.87 453.15,419.66 C454.21,416.45 454.81,412.99 454.49,411.96 C454.04,410.57 454.97,409.31 458.10,407.04 C461.81,404.35 463.10,404.00 469.18,404.00 C475.31,404.00 476.15,404.24 476.86,406.15 C477.69,408.39 476.23,418.00 475.06,418.00 C474.69,418.00 472.86,416.88 471.00,415.50 C463.20,409.75 455.54,414.62 460.73,422.03 C461.69,423.39 462.34,425.22 462.20,426.09 C461.63,429.46 463.88,432.91 467.21,433.77 C470.34,434.58 470.71,435.20 474.81,446.53 C478.80,457.56 479.13,459.20 479.17,468.56 C479.20,476.79 478.83,479.40 477.19,482.59 C473.71,489.35 468.09,494.87 459.66,499.83 C453.56,503.42 450.71,505.83 448.36,509.38 C446.64,511.99 444.25,515.17 443.06,516.43 C441.46,518.14 441.07,519.43 441.56,521.37 C442.29,524.28 447.30,529.00 449.66,529.00 C450.49,529.00 450.96,529.56 450.72,530.25 C450.16,531.82 451.74,535.00 453.08,535.00 C453.63,535.00 455.30,533.88 456.78,532.50 C459.48,530.00 462.00,529.22 462.00,530.88 C462.00,531.36 461.33,532.32 460.50,533.00 C457.98,535.09 458.76,535.71 464.76,536.39 C467.93,536.75 471.87,537.43 473.51,537.90 L 476.50 538.75 L 473.68 539.87 C472.14,540.49 468.09,541.00 464.68,541.01 C461.16,541.01 457.27,541.65 455.64,542.51 ZM 315.55 303.90 C314.17,306.63 312.57,309.15 311.99,309.51 C308.73,311.52 287.94,279.54 278.83,258.50 C274.30,248.04 274.07,241.50 277.86,231.17 C283.48,215.86 292.14,202.30 306.94,185.63 C331.72,157.73 361.38,137.23 398.00,122.69 C425.98,111.59 456.50,107.73 490.50,111.02 C507.69,112.68 531.49,118.51 532.57,121.33 C532.83,122.00 529.85,130.64 525.96,140.52 C522.07,150.41 517.67,161.57 516.20,165.33 C513.72,171.62 513.31,172.11 511.00,171.60 C493.43,167.73 487.61,166.87 475.40,166.33 C458.30,165.57 443.22,167.07 427.22,171.11 C400.68,177.82 380.81,189.28 360.36,209.69 C338.40,231.61 330.94,245.58 322.48,280.62 C320.05,290.69 316.94,301.17 315.55,303.90 ZM 312.00 757.15 L 312.00 785.00 L 305.67 785.00 C302.18,785.00 299.03,784.70 298.67,784.33 C298.30,783.97 298.00,759.60 298.00,730.19 L 298.00 676.72 L 309.54 677.23 C315.88,677.51 321.29,677.95 321.55,678.21 C321.80,678.47 324.48,692.85 327.48,710.16 C335.67,757.35 335.81,757.82 337.94,744.25 C341.59,720.95 348.15,681.26 348.61,679.75 C349.07,678.21 350.57,678.00 361.03,678.00 L 372.93 678.00 L 372.98 729.53 C373.02,763.77 372.68,781.73 371.98,783.03 C371.12,784.64 369.88,785.00 365.21,784.98 C362.07,784.98 358.96,784.63 358.30,784.20 C357.42,783.64 356.90,773.53 356.38,746.50 C355.99,726.18 355.34,710.45 354.94,711.53 C354.53,712.61 351.83,729.03 348.92,748.00 C346.02,766.97 343.22,783.06 342.70,783.75 C341.40,785.48 329.55,785.41 327.82,783.67 C327.07,782.91 323.95,767.61 320.58,748.17 C317.32,729.38 314.35,714.00 313.98,714.00 C312.70,714.00 312.00,729.26 312.00,757.15 ZM 699.39 784.58 C685.32,788.82 668.04,782.01 664.99,771.03 C664.43,769.01 664.01,751.44 664.01,729.95 L 664.00 692.39 L 666.95 687.75 C668.88,684.70 671.72,682.06 675.20,680.06 C679.89,677.37 681.42,677.02 688.50,677.01 C692.90,677.01 698.22,677.49 700.32,678.07 C705.25,679.44 711.31,684.95 714.00,690.50 C716.05,694.74 716.10,695.91 715.81,732.18 C715.51,768.63 715.45,769.60 713.26,773.69 C710.50,778.86 705.58,782.72 699.39,784.58 ZM 249.00 741.00 L 249.00 785.00 L 241.17 785.00 C236.86,785.00 233.03,784.70 232.67,784.33 C232.30,783.97 232.00,759.64 232.00,730.27 L 232.00 676.87 L 247.75 677.47 C256.41,677.80 265.28,678.30 267.45,678.58 C272.66,679.25 277.52,682.35 281.10,687.29 C283.98,691.27 284.00,691.39 284.00,705.72 C284.00,714.36 283.55,721.01 282.88,722.32 C282.27,723.52 280.01,726.32 277.87,728.55 L 273.97 732.60 L 276.87 734.75 C282.78,739.12 284.12,744.07 284.99,764.78 C285.43,775.07 285.58,783.84 285.33,784.25 C284.70,785.29 271.81,785.16 270.12,784.10 C269.07,783.43 268.59,779.00 268.12,765.82 C267.32,743.26 266.03,741.00 253.93,741.00 ZM 746.00 741.00 L 746.00 785.00 L 737.97 785.00 C731.50,785.00 729.82,784.69 729.32,783.39 C728.48,781.19 729.62,679.05 730.49,678.19 C730.87,677.81 738.44,677.61 747.31,677.74 C769.12,678.07 773.36,679.60 779.62,689.45 C781.22,691.98 781.49,694.35 781.44,705.95 C781.37,720.97 781.03,722.15 774.79,728.63 L 770.82 732.76 L 774.56 735.61 C780.78,740.36 781.08,741.81 782.49,773.25 L 783.01 785.00 L 776.20 785.00 C775.94,785.00 775.69,785.00 775.45,785.00 C771.92,785.01 769.73,785.01 768.33,783.96 C765.96,782.17 765.87,777.34 765.38,764.28 L 764.70 746.06 L 761.05 743.53 C758.18,741.55 756.16,741.00 751.70,741.00 ZM 177.49 775.75 L 175.79 785.00 L 160.98 785.00 L 161.59 780.75 C162.36,775.48 176.73,689.75 177.91,683.48 C178.37,680.96 179.08,678.59 179.46,678.20 C179.85,677.82 185.32,677.50 191.62,677.50 C200.27,677.50 203.28,677.84 203.92,678.88 C204.39,679.64 205.70,685.94 206.82,692.88 C207.95,699.82 211.84,723.01 215.47,744.41 C219.32,767.07 221.71,783.69 221.19,784.21 C220.71,784.69 216.99,784.96 212.93,784.80 L 205.56 784.50 L 204.31 777.00 C203.26,770.62 202.85,767.63 201.14,766.23 C199.63,764.99 197.11,765.00 192.23,765.01 C191.92,765.01 191.60,765.01 191.27,765.02 C185.90,765.02 180.98,765.36 180.35,765.77 C179.71,766.17 178.43,770.66 177.49,775.75 ZM 617.42 784.39 C615.28,785.22 602.50,785.17 601.67,784.33 C600.81,783.47 600.80,723.24 601.66,697.66 L 602.32 678.00 L 618.41 678.01 C627.26,678.01 636.25,678.50 638.38,679.09 C640.75,679.75 644.12,682.03 647.05,684.96 C650.92,688.82 652.00,690.68 652.67,694.62 C653.88,701.71 653.47,723.76 652.04,728.96 C649.41,738.49 639.81,744.00 625.82,744.00 L 619.00 744.00 L 619.00 763.89 C619.00,781.11 618.79,783.87 617.42,784.39 ZM 556.00 744.29 L 556.00 785.00 L 548.17 785.00 C543.86,785.00 540.03,784.70 539.67,784.33 C539.30,783.97 539.00,759.60 539.00,730.18 L 539.00 676.69 L 555.34 677.33 C577.59,678.21 583.56,680.47 588.10,689.73 C590.24,694.10 590.44,695.81 590.47,710.00 C590.50,727.26 589.69,731.01 584.66,736.73 C580.40,741.59 576.26,743.09 565.31,743.74 ZM 509.60 784.53 C503.61,786.31 496.20,786.32 489.67,784.57 C480.95,782.22 475.84,776.67 474.13,767.69 C472.77,760.59 471.69,707.33 472.57,691.15 L 473.28 678.00 L 489.89 678.00 L 490.19 722.59 L 490.50 767.18 L 492.88 769.10 C497.21,772.61 502.16,772.80 506.50,769.63 C508.43,768.22 508.53,766.50 509.34,723.33 C509.80,698.67 510.25,678.44 510.34,678.36 C510.43,678.28 513.65,678.06 517.50,677.86 L 524.50 677.50 L 524.44 724.00 C524.44,725.84 524.44,727.61 524.44,729.32 C524.40,765.38 524.40,772.01 521.22,776.30 C520.36,777.47 519.26,778.47 517.86,779.84 C516.03,781.63 512.37,783.70 509.60,784.53 ZM 450.13 782.87 C444.51,785.97 431.62,786.75 425.17,784.38 C420.42,782.62 414.91,777.66 412.45,772.91 C410.44,769.01 408.81,759.33 409.57,755.75 C410.15,753.06 410.31,753.00 417.44,753.00 L 424.72 753.00 L 425.28 759.15 C425.62,762.89 426.58,766.30 427.73,767.84 C433.40,775.44 445.01,771.38 444.99,761.80 C444.98,752.87 443.66,750.69 429.02,735.56 C421.40,727.68 414.37,719.72 413.39,717.87 C411.11,713.55 410.23,696.87 411.99,691.52 C413.63,686.56 418.60,681.09 423.49,678.86 C429.09,676.32 442.95,676.34 448.57,678.89 C456.17,682.35 460.25,689.16 461.64,700.75 L 462.28 706.00 L 454.71 706.00 C454.37,706.00 454.05,706.00 453.75,706.00 C450.16,706.01 448.41,706.01 447.42,705.15 C446.39,704.25 446.16,702.44 445.54,698.75 C444.69,693.70 441.62,691.00 436.75,691.00 C434.61,691.00 432.05,691.44 431.04,691.98 C427.11,694.08 425.72,704.58 428.62,710.30 C429.51,712.06 436.20,719.58 443.47,727.00 C450.75,734.42 457.49,742.02 458.44,743.88 C461.02,748.88 462.19,759.07 461.02,766.33 C459.81,773.88 456.04,779.60 450.13,782.87 ZM 128.23 762.75 L 127.96 785.00 L 120.15 785.00 C115.85,785.00 112.03,784.70 111.67,784.33 C111.30,783.97 111.00,760.43 111.00,732.02 C111.00,692.20 111.29,680.03 112.25,678.84 C113.33,677.51 116.53,677.36 135.79,677.77 L 158.09 678.24 L 157.79 684.87 L 157.50 691.50 L 128.00 692.05 L 128.00 724.71 L 134.75 725.35 C138.46,725.70 143.36,725.99 145.64,725.99 C150.49,726.00 151.00,726.82 151.00,734.55 L 151.00 739.93 L 139.75 740.22 L 128.50 740.50 ZM 826.00 692.08 L 826.00 785.00 L 818.17 785.00 C813.86,785.00 810.03,784.70 809.67,784.33 C809.30,783.97 809.00,763.04 809.00,737.83 L 809.00 692.00 L 790.00 692.00 L 790.02 686.25 C790.02,683.09 790.41,679.90 790.88,679.16 C791.54,678.12 797.56,677.69 817.79,677.26 L 843.85 676.70 L 844.50 680.14 C844.85,682.04 845.00,685.37 844.82,687.54 L 844.50 691.50 ZM 683.02 769.17 C686.51,772.66 691.73,772.95 696.63,769.92 L 700.00 767.84 L 700.00 696.37 L 697.14 693.63 C694.63,691.23 693.61,690.92 688.99,691.19 C684.61,691.45 683.36,691.96 681.70,694.18 C679.84,696.68 679.67,698.87 679.22,725.76 C678.63,760.19 679.07,765.23 683.02,769.17 ZM 327.19 440.90 C323.28,442.99 320.28,442.17 314.34,437.37 C312.05,435.53 306.81,432.20 302.68,429.97 C298.56,427.75 294.68,425.32 294.08,424.59 C292.63,422.84 288.64,407.03 289.44,406.22 C290.41,405.25 298.89,407.76 305.51,410.97 C308.82,412.58 314.17,416.39 317.41,419.45 L 323.29 425.02 L 328.49 420.10 C335.45,413.51 354.48,404.14 356.59,406.26 C357.35,407.01 355.19,417.43 353.31,422.17 C352.12,425.14 350.55,426.51 344.94,429.46 C341.14,431.46 336.06,434.60 333.64,436.44 C331.23,438.29 328.32,440.29 327.19,440.90 ZM 328.34 414.43 C326.05,416.40 324.03,418.00 323.84,417.99 C323.65,417.98 320.58,415.92 317.00,413.41 C313.42,410.89 307.93,407.52 304.80,405.93 C298.55,402.74 298.73,403.13 297.50,390.25 C296.91,384.14 296.95,384.00 299.32,384.00 C302.87,384.00 310.36,388.51 316.97,394.64 C320.16,397.59 322.97,400.00 323.22,400.00 C323.47,400.00 325.64,398.13 328.04,395.85 C334.01,390.17 343.78,384.00 346.80,384.00 L 349.30 384.00 L 348.66 391.75 C347.71,403.29 347.67,403.36 339.66,407.33 C335.72,409.28 330.63,412.47 328.34,414.43 ZM 245.00 530.00 C245.02,532.28 249.91,525.99 250.63,522.75 C250.97,521.24 251.81,520.00 252.50,520.00 C255.26,520.00 257.76,508.15 255.99,503.46 C255.38,501.83 253.23,498.80 251.21,496.73 C248.08,493.50 247.72,492.68 248.72,491.07 C249.73,489.46 249.56,489.11 247.56,488.61 C245.33,488.04 245.24,487.65 245.36,479.26 C245.47,472.69 245.06,469.62 243.74,467.00 L 241.99 463.50 L 242.65 468.00 C244.08,477.64 243.58,482.25 240.31,489.50 C238.21,494.17 236.98,498.73 236.62,503.19 C236.33,506.87 235.36,512.67 234.48,516.08 L 232.87 522.29 L 236.14 525.28 C237.94,526.92 239.56,527.81 239.75,527.25 C240.26,525.72 244.98,528.20 245.00,530.00 ZM 257.00 524.90 C257.00,528.56 258.16,528.86 260.33,525.75 C261.84,523.59 261.90,523.58 261.95,525.53 C261.99,527.36 262.72,527.58 269.11,527.78 C274.63,527.94 276.10,527.70 275.71,526.67 C275.43,525.95 276.03,524.84 277.05,524.20 C282.55,520.77 278.84,501.53 270.59,490.71 L 268.06 487.39 L 273.90 482.25 C280.04,476.85 282.00,472.57 282.00,464.56 C282.00,459.00 280.30,460.38 279.80,466.34 C279.20,473.68 276.17,478.07 267.94,483.54 C260.24,488.66 259.34,490.95 262.73,496.86 C264.44,499.83 264.40,500.08 260.73,510.84 C258.68,516.86 257.00,523.19 257.00,524.90 ZM 557.20 728.80 C558.67,730.27 563.25,730.34 568.22,728.96 C573.29,727.55 574.27,723.92 573.84,708.26 C573.43,693.37 573.15,692.96 563.09,692.24 L 556.00 691.73 L 556.00 709.67 C556.00,722.28 556.36,727.96 557.20,728.80 ZM 619.75 729.44 C620.16,729.86 623.19,729.93 626.48,729.60 C636.06,728.61 636.50,727.78 636.45,710.85 L 636.41 696.75 L 633.65 694.37 C631.41,692.45 629.76,692.00 624.94,692.00 L 619.00 692.00 L 619.00 710.33 C619.00,720.42 619.34,729.01 619.75,729.44 ZM 249.00 692.00 L 249.00 726.00 L 255.58 726.00 C261.51,726.00 262.44,725.72 265.08,723.08 C267.96,720.20 268.00,719.99 268.00,709.00 C268.00,698.01 267.96,697.80 265.08,694.92 C262.44,692.28 261.51,692.00 255.58,692.00 ZM 747.00 691.77 L 747.00 726.00 L 752.05 726.00 C762.79,726.00 765.49,721.84 764.82,706.37 C764.29,694.33 763.06,692.79 753.52,692.18 ZM 420.00 500.29 C422.97,501.38 428.16,500.97 431.18,499.41 C433.06,498.43 435.38,498.04 437.13,498.41 C438.71,498.73 441.34,499.28 442.99,499.61 C447.12,500.46 450.68,499.38 453.14,496.55 C454.28,495.24 456.29,493.89 457.60,493.56 C463.33,492.13 466.77,475.87 462.66,469.61 C459.60,464.94 458.87,465.70 456.94,475.49 C456.00,480.23 454.98,482.26 452.00,485.24 C448.61,488.63 447.72,489.00 443.01,489.00 C438.90,489.00 437.16,489.53 434.82,491.50 C432.83,493.18 430.64,494.00 428.17,494.00 C424.46,493.99 418.17,490.91 416.70,488.38 C415.17,485.74 414.00,487.02 414.00,491.33 C414.00,495.65 416.17,498.89 420.00,500.29 ZM 182.05 748.25 L 182.00 752.00 L 199.00 752.00 L 199.00 748.65 C199.00,746.81 197.64,736.79 195.98,726.40 C194.32,716.00 192.68,705.57 192.34,703.21 C191.98,700.75 191.25,699.08 190.61,699.30 C189.47,699.68 182.14,741.60 182.05,748.25 ZM 219.00 526.50 C219.00,527.73 219.82,527.90 223.25,527.37 C225.59,527.01 227.64,526.61 227.80,526.48 C227.97,526.34 228.59,523.27 229.19,519.65 C230.46,511.99 228.95,490.35 226.62,483.00 C225.24,478.64 225.19,478.60 225.10,481.75 C225.04,483.70 224.48,485.00 223.70,485.00 C221.71,485.00 211.16,475.20 209.31,471.64 C208.41,469.91 207.49,469.06 207.26,469.75 C206.62,471.63 210.38,477.13 215.47,481.76 L 220.00 485.88 L 220.00 494.61 C220.00,499.40 219.23,507.33 218.30,512.22 C216.94,519.29 216.84,521.51 217.80,523.04 C218.46,524.10 219.00,525.66 219.00,526.50 ZM 329.47 388.68 C326.76,391.06 323.85,393.00 322.99,393.00 C320.70,393.00 313.00,384.78 313.00,382.35 C313.00,379.62 319.42,366.83 321.94,364.56 C323.85,362.83 323.98,362.90 326.83,367.40 C328.44,369.94 330.80,374.79 332.07,378.19 L 334.38 384.36 ZM 428.63 529.28 C431.14,529.92 432.55,529.48 432.26,528.16 C432.13,527.56 433.14,525.95 434.51,524.58 C435.88,523.21 437.00,521.46 437.00,520.68 C437.00,518.99 433.23,514.00 431.95,514.00 C430.23,514.00 428.12,518.52 427.44,523.65 C426.85,528.17 427.00,528.87 428.63,529.28 ZM 471.43 429.43 C469.79,431.07 469.32,431.17 467.25,430.34 C465.66,429.69 465.62,424.78 467.20,423.20 C467.86,422.54 469.43,422.00 470.70,422.00 C472.58,422.00 473.00,422.54 473.00,424.93 C473.00,426.54 472.29,428.56 471.43,429.43 ZM 234.35 529.46 C234.97,531.08 238.00,531.63 238.00,530.12 C238.00,528.86 235.06,526.60 234.35,527.31 C234.02,527.64 234.02,528.61 234.35,529.46 ZM 304.90 528.57 C304.81,528.37 304.64,528.20 304.43,528.10 C304.71,528.10 304.87,528.25 304.90,528.57 Z" fill="rgb(18,171,10)"/>
<path d="M 342.87 783.27 C343.68,780.38 346.26,765.41 348.92,748.00 C351.83,729.03 354.53,712.61 354.94,711.53 C355.34,710.45 355.99,726.18 356.38,746.50 C356.53,754.17 356.68,760.48 356.83,765.59 C356.69,760.96 356.55,755.38 356.41,748.73 C356.02,729.63 355.40,714.00 355.03,714.00 C354.67,714.00 352.01,729.19 349.13,747.75 C346.24,766.31 343.52,782.17 343.09,783.00 C343.04,783.09 342.96,783.18 342.87,783.27 ZM 201.80 435.92 C201.99,435.59 202.23,435.30 202.52,434.98 C204.65,432.62 203.92,432.47 200.04,434.48 C199.97,434.52 199.90,434.55 199.83,434.59 C201.07,433.85 202.93,432.43 204.25,431.19 C206.39,429.20 207.00,428.98 207.00,430.24 C207.00,431.13 205.58,432.96 203.85,434.32 ZM 234.35 529.46 C234.02,528.61 234.02,527.64 234.35,527.31 C235.06,526.60 238.00,528.86 238.00,530.12 C238.00,531.63 234.97,531.08 234.35,529.46 ZM 209.31 471.64 C210.13,473.23 212.68,476.04 215.42,478.68 C215.28,478.55 215.13,478.41 214.98,478.27 C209.36,473.07 208.06,472.22 209.26,474.53 C210.05,476.07 212.54,479.01 214.94,481.27 C210.12,476.75 206.64,471.56 207.26,469.75 C207.49,469.06 208.41,469.91 209.31,471.64 ZM 375.08 453.37 C372.99,453.18 370.86,453.10 369.19,453.13 C370.32,453.05 371.63,453.00 373.00,453.00 C376.79,453.00 380.15,452.57 380.47,452.05 C380.73,451.63 380.54,451.17 380.01,450.71 C381.22,451.39 382.00,452.06 382.00,452.59 C382.00,453.75 380.70,453.89 375.08,453.37 ZM 374.73 448.61 C373.95,448.43 373.10,448.28 372.21,448.15 C371.46,448.04 370.73,447.89 370.07,447.71 C370.24,447.74 370.41,447.76 370.58,447.78 C371.87,447.90 373.32,448.21 374.73,448.61 ZM 326.73 780.06 C325.37,774.43 323.11,762.79 320.58,748.17 C323.03,762.34 325.36,774.32 326.73,780.06 ZM 368.25 456.11 C368.76,456.37 369.22,456.63 369.62,456.88 C369.30,456.70 368.94,456.51 368.54,456.32 C367.87,456.00 367.27,455.65 366.79,455.31 C367.18,455.54 367.67,455.80 368.25,456.11 ZM 327.85 783.70 C328.40,784.21 329.81,784.57 331.55,784.78 C329.81,784.62 328.42,784.27 327.86,783.71 C327.86,783.71 327.86,783.70 327.85,783.70 ZM 199.37 434.85 C198.15,435.57 197.62,436.24 197.60,437.13 C197.61,436.17 198.17,435.47 199.34,434.86 ZM 371.85 459.75 C371.72,460.48 370.98,461.15 369.62,461.76 C370.95,461.16 371.69,460.48 371.85,459.75 ZM 224.42 484.55 C224.81,484.01 225.06,483.02 225.10,481.75 C225.06,483.06 224.82,484.03 224.42,484.55 ZM 223.66 485.00 C223.65,485.00 223.64,485.00 223.62,485.00 C223.56,485.00 223.47,484.98 223.36,484.94 C223.48,484.97 223.58,484.99 223.66,485.00 ZM 365.64 453.79 C365.67,453.76 365.72,453.73 365.78,453.70 C365.73,453.73 365.68,453.76 365.64,453.79 Z" fill="rgb(160,211,162)"/>
<path d="M 0.00 444.50 L 0.00 0.00 L 459.50 0.00 L 919.00 0.00 L 919.00 444.50 L 919.00 889.00 L 459.50 889.00 L 0.00 889.00 L 0.00 444.50 ZM 386.17 843.91 C388.21,842.87 390.97,840.55 392.30,838.76 C399.06,829.67 398.39,819.34 390.55,811.50 C377.45,798.39 353.64,807.42 353.63,825.50 C353.62,841.55 371.24,851.53 386.17,843.91 ZM 656.44 845.91 C665.31,843.68 671.96,835.15 671.96,826.00 C671.96,818.07 666.49,809.63 659.68,807.06 C654.78,805.21 644.13,805.76 639.27,808.11 C633.11,811.09 629.02,818.34 629.01,826.30 C628.99,835.63 633.66,841.81 643.20,845.10 C649.47,847.27 650.74,847.35 656.44,845.91 ZM 201.00 826.00 L 201.00 806.00 L 196.00 806.00 L 191.00 806.00 L 191.00 826.00 L 191.00 846.00 L 196.00 846.00 L 201.00 846.00 L 201.00 826.00 ZM 238.00 835.42 C238.00,829.60 238.38,824.98 238.85,825.17 C239.32,825.35 243.14,829.64 247.34,834.71 C255.63,844.71 257.30,846.00 261.93,846.00 L 265.00 846.00 L 265.00 826.00 L 265.00 806.00 L 260.00 806.00 L 255.00 806.00 L 254.98 816.75 L 254.95 827.50 L 250.73 822.87 C248.40,820.33 244.02,815.49 240.99,812.12 C236.11,806.70 235.05,806.00 231.74,806.00 L 228.00 806.00 L 228.00 826.00 L 228.00 846.00 L 233.00 846.00 L 238.00 846.00 L 238.00 835.42 ZM 302.00 835.92 C302.00,828.36 302.31,825.94 303.23,826.24 C303.91,826.47 308.00,831.01 312.31,836.33 C320.09,845.92 320.20,846.00 324.58,846.00 L 329.00 846.00 L 329.00 826.00 L 329.00 806.00 L 324.00 806.00 L 319.00 806.00 L 319.00 812.88 C319.00,820.19 318.16,826.00 317.11,826.00 C316.76,826.00 312.88,821.51 308.48,816.01 L 300.50 806.02 L 295.82 806.01 L 291.14 806.00 L 291.65 824.75 C291.93,835.06 292.34,844.06 292.55,844.75 C292.79,845.51 294.72,846.00 297.47,846.00 L 302.00 846.00 L 302.00 835.92 ZM 442.74 844.75 C444.26,842.81 459.07,806.74 458.56,806.22 C458.30,805.97 455.98,806.16 453.39,806.63 L 448.68 807.50 L 443.67 819.28 C440.92,825.76 438.18,830.89 437.58,830.70 C436.99,830.50 434.63,825.87 432.34,820.42 C430.05,814.96 427.80,809.60 427.34,808.50 C426.68,806.93 425.38,806.44 421.25,806.20 C417.87,806.00 416.00,806.29 416.00,807.01 C416.00,808.46 429.75,840.80 431.62,843.75 C432.74,845.52 433.97,846.00 437.40,846.00 C439.80,846.00 442.20,845.44 442.74,844.75 ZM 485.66 843.25 C488.54,838.59 489.94,838.00 498.01,838.00 L 505.63 838.00 L 507.29 841.47 C509.04,845.16 511.66,846.37 516.67,845.82 L 519.62 845.50 L 511.06 825.78 L 502.50 806.05 L 497.00 806.07 L 491.50 806.08 L 483.79 824.29 C479.55,834.31 475.79,843.29 475.43,844.25 C474.88,845.76 475.42,846.00 479.37,846.00 C483.29,846.00 484.20,845.60 485.66,843.25 ZM 559.00 830.00 L 559.00 814.00 L 565.00 814.00 L 571.00 814.00 L 571.00 810.00 L 571.00 806.00 L 553.50 806.00 L 536.00 806.00 L 536.00 810.00 L 536.00 814.00 L 542.00 814.00 L 548.00 814.00 L 548.00 830.00 L 548.00 846.00 L 553.50 846.00 L 559.00 846.00 L 559.00 830.00 ZM 604.00 826.00 L 604.00 806.00 L 599.00 806.00 L 594.00 806.00 L 594.00 826.00 L 594.00 846.00 L 599.00 846.00 L 604.00 846.00 L 604.00 826.00 ZM 705.75 838.00 C706.04,829.44 706.66,826.00 707.91,826.00 C708.38,826.00 712.45,830.50 716.95,836.00 C725.07,845.94 725.16,846.00 729.56,846.00 L 734.00 846.00 L 734.00 826.00 L 734.00 806.00 L 728.53 806.00 L 723.07 806.00 L 722.78 816.75 L 722.50 827.49 L 714.00 816.79 L 705.50 806.10 L 700.75 806.05 L 696.00 806.00 L 696.00 826.05 L 696.00 846.11 L 700.75 845.80 L 705.50 845.50 L 705.75 838.00 ZM 450.13 782.87 C456.04,779.60 459.81,773.88 461.02,766.33 C462.19,759.07 461.02,748.88 458.44,743.88 C457.49,742.02 450.75,734.42 443.47,727.00 C436.20,719.58 429.51,712.06 428.62,710.30 C425.72,704.58 427.11,694.08 431.04,691.98 C432.05,691.44 434.61,691.00 436.75,691.00 C441.62,691.00 444.69,693.70 445.54,698.75 C446.82,706.32 446.42,706.00 454.71,706.00 L 462.28 706.00 L 461.64 700.75 C460.25,689.16 456.17,682.35 448.57,678.89 C442.95,676.34 429.09,676.32 423.49,678.86 C418.60,681.09 413.63,686.56 411.99,691.52 C410.23,696.87 411.11,713.55 413.39,717.87 C414.37,719.72 421.40,727.68 429.02,735.56 C443.66,750.69 444.98,752.87 444.99,761.80 C445.01,771.38 433.40,775.44 427.73,767.84 C426.58,766.30 425.62,762.89 425.28,759.15 L 424.72 753.00 L 417.44 753.00 C410.31,753.00 410.15,753.06 409.57,755.75 C408.81,759.33 410.44,769.01 412.45,772.91 C414.91,777.66 420.42,782.62 425.17,784.38 C431.62,786.75 444.51,785.97 450.13,782.87 ZM 509.60 784.53 C512.37,783.70 516.03,781.63 517.86,779.84 C524.64,773.21 524.38,775.36 524.44,724.00 L 524.50 677.50 L 517.50 677.86 C513.65,678.06 510.43,678.28 510.34,678.36 C510.25,678.44 509.80,698.67 509.34,723.33 C508.53,766.50 508.43,768.22 506.50,769.63 C502.16,772.80 497.21,772.61 492.88,769.10 L 490.50 767.18 L 490.19 722.59 L 489.89 678.00 L 481.58 678.00 L 473.28 678.00 L 472.57 691.15 C471.69,707.33 472.77,760.59 474.13,767.69 C475.84,776.67 480.95,782.22 489.67,784.57 C496.20,786.32 503.61,786.31 509.60,784.53 ZM 699.39 784.58 C705.58,782.72 710.50,778.86 713.26,773.69 C715.45,769.60 715.51,768.63 715.81,732.18 C716.10,695.91 716.05,694.74 714.00,690.50 C711.31,684.95 705.25,679.44 700.32,678.07 C698.22,677.49 692.90,677.01 688.50,677.01 C681.42,677.02 679.89,677.37 675.20,680.06 C671.72,682.06 668.88,684.70 666.95,687.75 L 664.00 692.39 L 664.01 729.95 C664.01,751.44 664.43,769.01 664.99,771.03 C668.04,782.01 685.32,788.82 699.39,784.58 ZM 128.23 762.75 L 128.50 740.50 L 139.75 740.22 L 151.00 739.93 L 151.00 734.55 C151.00,726.82 150.49,726.00 145.64,725.99 C143.36,725.99 138.46,725.70 134.75,725.35 L 128.00 724.71 L 128.00 708.38 L 128.00 692.05 L 142.75 691.78 L 157.50 691.50 L 157.79 684.87 L 158.09 678.24 L 135.79 677.77 C116.53,677.36 113.33,677.51 112.25,678.84 C111.29,680.03 111.00,692.20 111.00,732.02 C111.00,760.43 111.30,783.97 111.67,784.33 C112.03,784.70 115.85,785.00 120.15,785.00 L 127.96 785.00 L 128.23 762.75 ZM 177.49 775.75 C178.43,770.66 179.71,766.17 180.35,765.77 C180.98,765.36 185.90,765.02 191.27,765.02 C202.66,765.00 202.26,764.63 204.31,777.00 L 205.56 784.50 L 212.93 784.80 C216.99,784.96 220.71,784.69 221.19,784.21 C221.71,783.69 219.32,767.07 215.47,744.41 C211.84,723.01 207.95,699.82 206.82,692.88 C205.70,685.94 204.39,679.64 203.92,678.88 C203.28,677.84 200.27,677.50 191.62,677.50 C185.32,677.50 179.85,677.82 179.46,678.20 C179.08,678.59 178.37,680.96 177.91,683.48 C176.73,689.75 162.36,775.48 161.59,780.75 L 160.98 785.00 L 168.38 785.00 L 175.79 785.00 L 177.49 775.75 ZM 249.00 763.00 L 249.00 741.00 L 253.93 741.00 C266.03,741.00 267.32,743.26 268.12,765.82 C268.59,779.00 269.07,783.43 270.12,784.10 C271.81,785.16 284.70,785.29 285.33,784.25 C285.58,783.84 285.43,775.07 284.99,764.78 C284.12,744.07 282.78,739.12 276.87,734.75 L 273.97 732.60 L 277.87 728.55 C280.01,726.32 282.27,723.52 282.88,722.32 C283.55,721.01 284.00,714.36 284.00,705.72 C284.00,691.39 283.98,691.27 281.10,687.29 C277.52,682.35 272.66,679.25 267.45,678.58 C265.28,678.30 256.41,677.80 247.75,677.47 L 232.00 676.87 L 232.00 730.27 C232.00,759.64 232.30,783.97 232.67,784.33 C233.03,784.70 236.86,785.00 241.17,785.00 L 249.00 785.00 L 249.00 763.00 ZM 312.00 757.15 C312.00,729.26 312.70,714.00 313.98,714.00 C314.35,714.00 317.32,729.38 320.58,748.17 C324.08,768.39 327.06,782.90 327.86,783.71 C329.79,785.65 341.99,785.08 343.09,783.00 C343.52,782.17 346.24,766.31 349.13,747.75 C352.01,729.19 354.67,714.00 355.03,714.00 C355.40,714.00 356.02,729.63 356.41,748.73 C356.93,773.73 357.46,783.67 358.31,784.22 C358.97,784.63 362.07,784.98 365.21,784.98 C369.88,785.00 371.12,784.64 371.98,783.03 C372.68,781.73 373.02,763.77 372.98,729.53 L 372.93 678.00 L 361.03 678.00 C350.57,678.00 349.07,678.21 348.61,679.75 C348.15,681.26 341.59,720.95 337.94,744.25 C335.81,757.82 335.67,757.35 327.48,710.16 C324.48,692.85 321.80,678.47 321.55,678.21 C321.29,677.95 315.88,677.51 309.54,677.23 L 298.00 676.72 L 298.00 730.19 C298.00,759.60 298.30,783.97 298.67,784.33 C299.03,784.70 302.18,785.00 305.67,785.00 L 312.00 785.00 L 312.00 757.15 ZM 556.00 764.65 L 556.00 744.29 L 565.31 743.74 C576.26,743.09 580.40,741.59 584.66,736.73 C589.69,731.01 590.50,727.26 590.47,710.00 C590.44,695.81 590.24,694.10 588.10,689.73 C583.56,680.47 577.59,678.21 555.34,677.33 L 539.00 676.69 L 539.00 730.18 C539.00,759.60 539.30,783.97 539.67,784.33 C540.03,784.70 543.86,785.00 548.17,785.00 L 556.00 785.00 L 556.00 764.65 ZM 617.42 784.39 C618.79,783.87 619.00,781.11 619.00,763.89 L 619.00 744.00 L 625.82 744.00 C639.81,744.00 649.41,738.49 652.04,728.96 C653.47,723.76 653.88,701.71 652.67,694.62 C652.00,690.68 650.92,688.82 647.05,684.96 C644.12,682.03 640.75,679.75 638.38,679.09 C636.25,678.50 627.26,678.01 618.41,678.01 L 602.32 678.00 L 601.66 697.66 C600.80,723.24 600.81,783.47 601.67,784.33 C602.50,785.17 615.28,785.22 617.42,784.39 ZM 746.00 763.00 L 746.00 741.00 L 751.70 741.00 C756.16,741.00 758.18,741.55 761.05,743.53 L 764.70 746.06 L 765.38 764.28 C766.18,785.54 765.90,785.00 776.20,785.00 L 783.01 785.00 L 782.49 773.25 C781.08,741.81 780.78,740.36 774.56,735.61 L 770.82 732.76 L 774.79 728.63 C781.03,722.15 781.37,720.97 781.44,705.95 C781.49,694.35 781.22,691.98 779.62,689.45 C773.36,679.60 769.12,678.07 747.31,677.74 C738.44,677.61 730.87,677.81 730.49,678.19 C729.62,679.05 728.48,781.19 729.32,783.39 C729.82,784.69 731.50,785.00 737.97,785.00 L 746.00 785.00 L 746.00 763.00 ZM 826.00 738.54 L 826.00 692.08 L 835.25 691.79 L 844.50 691.50 L 844.82 687.54 C845.00,685.37 844.85,682.04 844.50,680.14 L 843.85 676.70 L 817.79 677.26 C797.56,677.69 791.54,678.12 790.88,679.16 C790.41,679.90 790.02,683.09 790.02,686.25 L 790.00 692.00 L 799.50 692.00 L 809.00 692.00 L 809.00 737.83 C809.00,763.04 809.30,783.97 809.67,784.33 C810.03,784.70 813.86,785.00 818.17,785.00 L 826.00 785.00 L 826.00 738.54 ZM 416.39 643.42 C448.78,643.10 475.89,642.59 476.64,642.31 C477.39,642.02 478.00,641.34 478.00,640.80 C478.00,639.05 453.91,596.68 449.74,591.10 L 445.71 585.70 L 430.61 586.34 C397.99,587.71 289.43,588.24 268.00,587.13 C206.69,583.97 176.26,573.71 149.47,547.19 C131.26,529.15 119.79,508.84 112.70,482.05 C109.73,470.82 109.65,469.88 109.63,448.00 C109.61,425.94 109.67,425.27 112.74,413.75 C116.37,400.08 120.98,388.95 127.71,377.59 C133.72,367.45 158.88,341.70 169.50,334.84 C192.58,319.93 210.46,315.78 264.00,312.93 C275.83,312.30 285.87,311.44 286.33,311.01 C287.26,310.15 283.08,301.50 272.55,282.50 C268.59,275.35 264.03,266.41 262.42,262.64 L 259.50 255.79 L 248.50 256.46 C212.50,258.68 183.07,265.97 155.50,279.53 C139.59,287.35 127.22,295.40 115.93,305.26 C85.11,332.21 66.97,362.15 56.30,403.70 L 52.50 418.50 L 52.51 448.00 C52.53,476.89 52.58,477.75 55.36,489.50 C71.86,559.26 113.60,606.81 176.95,627.98 C216.10,641.07 257.64,645.45 332.50,644.37 C346.25,644.17 384.00,643.75 416.39,643.42 ZM 725.50 640.97 C753.07,638.69 779.70,628.74 800.92,612.79 C809.98,605.97 824.22,590.98 831.39,580.70 C846.37,559.21 854.90,535.16 858.07,505.50 C859.09,495.95 858.83,479.49 857.64,478.30 C857.09,477.75 806.15,470.03 802.95,470.01 L 800.40 470.00 L 801.75 478.75 C806.71,510.66 793.64,547.19 770.71,565.51 C759.20,574.70 744.90,580.20 723.82,583.52 C708.88,585.88 661.26,586.86 558.25,586.94 C509.71,586.97 470.00,587.34 470.00,587.75 C470.01,589.07 481.68,612.60 486.08,620.18 C488.42,624.20 493.49,630.76 497.34,634.75 L 504.34 642.00 L 608.92 641.98 C669.32,641.98 718.57,641.55 725.50,640.97 ZM 455.64 542.51 C457.27,541.65 461.16,541.01 464.68,541.01 C468.09,541.00 472.14,540.49 473.68,539.87 L 476.50 538.75 L 473.51 537.90 C471.87,537.43 467.93,536.75 464.76,536.39 C458.76,535.71 457.98,535.09 460.50,533.00 C461.33,532.32 462.00,531.36 462.00,530.88 C462.00,529.22 459.48,530.00 456.78,532.50 C455.30,533.88 453.63,535.00 453.08,535.00 C451.74,535.00 450.16,531.82 450.72,530.25 C450.96,529.56 450.49,529.00 449.66,529.00 C447.30,529.00 442.29,524.28 441.56,521.37 C441.07,519.43 441.46,518.14 443.06,516.43 C444.25,515.17 446.64,511.99 448.36,509.38 C450.71,505.83 453.56,503.42 459.66,499.83 C468.09,494.87 473.71,489.35 477.19,482.59 C478.83,479.40 479.20,476.79 479.17,468.56 C479.13,459.20 478.80,457.56 474.81,446.53 C470.71,435.20 470.34,434.58 467.21,433.77 C463.88,432.91 461.63,429.46 462.20,426.09 C462.34,425.22 461.69,423.39 460.73,422.03 C455.54,414.62 463.20,409.75 471.00,415.50 C472.86,416.88 474.69,418.00 475.06,418.00 C476.23,418.00 477.69,408.39 476.86,406.15 C476.15,404.24 475.31,404.00 469.18,404.00 C463.10,404.00 461.81,404.35 458.10,407.04 C454.97,409.31 454.04,410.57 454.49,411.96 C454.81,412.99 454.21,416.45 453.15,419.66 C452.08,422.87 450.23,430.23 449.02,436.00 C445.38,453.48 442.60,457.32 430.16,462.10 C423.93,464.49 415.74,465.13 413.97,463.37 C413.35,462.75 412.21,457.43 411.44,451.54 C409.62,437.70 408.28,433.41 404.86,430.53 C399.84,426.31 389.12,426.04 386.96,430.08 C386.39,431.14 385.13,432.00 384.14,432.00 C381.38,432.00 373.00,435.08 373.00,436.09 C373.00,436.59 374.31,437.00 375.92,437.00 C382.49,437.00 384.13,439.52 378.25,440.59 C373.16,441.51 366.78,444.83 367.27,446.30 C367.49,446.96 369.71,447.79 372.21,448.15 C377.52,448.91 381.31,450.70 380.47,452.05 C380.15,452.57 376.79,453.00 373.00,453.00 C369.21,453.00 365.89,453.38 365.60,453.84 C365.32,454.29 366.64,455.41 368.54,456.32 C372.58,458.24 372.97,460.24 369.62,461.76 C365.86,463.48 360.00,469.04 360.00,470.90 C360.00,472.36 360.89,472.54 366.47,472.18 C373.55,471.73 378.00,472.46 378.00,474.07 C378.00,474.64 376.88,476.76 375.50,478.79 C371.23,485.06 371.76,485.63 381.75,485.56 C394.09,485.47 399.06,487.81 402.34,495.24 C405.10,501.48 411.54,507.48 417.34,509.22 C420.35,510.12 421.60,511.19 422.68,513.78 C424.61,518.40 424.05,526.95 421.72,528.40 C420.35,529.25 419.73,529.16 419.00,528.00 C418.22,526.75 417.71,526.72 416.01,527.77 C414.19,528.90 413.86,528.76 413.01,526.52 C411.65,522.95 410.25,523.35 405.17,528.75 C401.94,532.17 400.84,532.90 401.23,531.34 C401.63,529.71 401.25,529.10 399.63,528.81 C396.74,528.29 393.86,528.96 394.50,530.01 C395.75,532.02 392.99,531.82 391.57,529.79 C389.53,526.88 389.58,525.91 391.75,526.72 C393.28,527.29 393.33,527.16 392.13,525.69 C390.30,523.44 386.32,523.54 385.07,525.87 C384.52,526.90 382.61,528.03 380.84,528.38 C378.12,528.93 377.26,528.61 375.52,526.42 C373.07,523.34 369.12,523.38 367.52,526.50 C365.33,530.78 364.97,531.05 362.91,529.95 C359.65,528.21 354.00,527.84 353.43,529.33 C353.09,530.21 351.36,530.58 348.21,530.44 C345.62,530.33 341.32,530.57 338.67,530.98 C334.32,531.65 333.75,531.52 332.96,529.61 C331.96,527.18 330.34,505.09 329.37,480.75 C328.63,462.33 328.35,463.12 334.98,465.11 C340.06,466.63 346.40,463.81 351.20,457.88 C355.86,452.13 357.51,448.75 359.96,439.89 C362.91,429.26 362.81,428.63 358.24,429.24 C351.60,430.13 339.02,436.84 333.64,442.37 C328.92,447.22 328.43,447.46 323.21,447.54 C317.96,447.63 317.56,447.45 313.45,443.07 C305.68,434.78 288.35,426.22 285.38,429.19 C284.29,430.28 284.32,431.60 285.53,436.82 C288.68,450.30 296.37,461.45 304.73,464.64 C308.47,466.07 309.61,466.12 313.04,464.99 C315.22,464.27 317.32,463.98 317.69,464.36 C318.46,465.13 316.27,511.31 315.03,520.50 C314.58,523.80 313.38,528.43 312.36,530.79 C310.62,534.80 310.26,535.07 307.00,534.79 C303.45,534.50 303.42,534.42 304.74,529.75 C305.47,527.18 303.92,527.62 300.30,531.00 C296.15,534.89 294.00,534.91 294.00,531.06 C294.00,528.34 293.67,528.07 289.42,527.44 C283.03,526.48 282.42,524.72 284.43,513.09 C285.98,504.11 285.97,503.61 283.87,495.95 L 281.70 488.06 L 284.52 476.33 C287.04,465.84 287.22,463.93 286.28,458.41 C285.01,451.02 281.08,443.92 276.20,440.21 C272.67,437.52 272.49,437.50 256.57,437.49 C247.73,437.49 238.12,437.09 235.21,436.61 C230.75,435.87 229.72,435.99 228.69,437.41 C227.62,438.87 226.91,438.19 222.98,431.96 C216.28,421.31 215.12,420.00 212.37,420.00 C210.97,420.00 210.15,419.56 210.50,419.00 C210.84,418.45 212.37,418.00 213.91,418.00 C216.94,418.00 222.95,416.23 224.41,414.91 C226.01,413.45 223.04,411.17 218.18,410.13 C214.29,409.30 212.79,409.45 209.25,411.01 C204.47,413.12 204.50,413.14 206.36,408.68 C207.62,405.66 210.62,403.71 217.25,401.62 C218.21,401.31 219.00,400.57 219.00,399.97 C219.00,397.53 202.49,401.50 199.97,404.54 C198.35,406.49 197.00,405.44 197.00,402.23 C197.00,399.73 196.90,399.67 195.30,401.27 C194.36,402.21 192.67,404.90 191.54,407.24 C190.21,409.99 188.95,411.36 187.99,411.10 C184.14,410.07 181.37,410.03 180.00,410.99 C178.70,411.90 178.76,412.23 180.44,413.52 C181.51,414.33 183.93,415.00 185.82,415.00 C189.24,415.00 189.26,415.03 188.75,418.86 C188.46,420.98 187.47,424.32 186.54,426.28 C184.07,431.47 184.81,434.17 189.25,436.25 C192.07,437.58 193.00,438.62 193.00,440.45 C193.00,441.79 193.39,443.12 193.87,443.42 C195.35,444.34 198.29,440.21 197.71,438.01 C197.31,436.48 197.90,435.59 200.04,434.48 C203.92,432.47 204.65,432.62 202.52,434.98 C200.84,436.83 200.80,437.92 201.94,451.23 C203.55,469.95 205.07,477.09 209.38,486.07 C212.57,492.72 213.02,494.67 213.61,504.57 C214.31,516.09 213.16,522.47 209.46,527.76 L 207.94 529.93 L 204.25 527.86 C202.05,526.62 200.43,526.21 200.22,526.84 C200.03,527.42 199.23,527.64 198.44,527.34 C197.66,527.04 196.76,527.45 196.46,528.25 C195.88,529.75 191.09,529.81 186.09,528.38 C184.25,527.85 183.88,527.99 184.50,529.00 C185.13,530.02 184.62,530.17 182.27,529.70 C179.25,529.10 176.00,531.16 176.00,533.68 C176.00,534.25 172.58,534.97 168.40,535.29 C160.55,535.88 158.64,536.54 160.83,537.90 C162.81,539.12 211.76,539.86 332.70,540.51 C422.01,540.98 444.76,541.37 448.20,542.45 C450.57,543.19 452.56,543.85 452.64,543.90 C452.71,543.96 454.06,543.33 455.64,542.51 ZM 590.06 493.71 C608.31,487.49 624.70,471.26 630.09,454.07 C632.75,445.61 633.68,430.16 632.05,421.83 C627.91,400.79 611.61,382.55 590.65,375.52 C584.30,373.39 581.33,373.00 571.32,373.01 C560.93,373.03 558.51,373.37 551.33,375.87 C540.32,379.70 534.99,383.00 527.08,390.86 C512.59,405.28 506.29,426.50 510.43,446.94 C514.15,465.30 526.26,481.08 543.36,489.85 C552.77,494.68 558.06,495.81 571.50,495.88 C581.41,495.94 584.64,495.56 590.06,493.71 ZM 846.63 443.37 C848.52,442.47 851.38,440.15 852.99,438.20 C857.28,433.00 858.16,427.27 856.97,412.25 C849.91,322.76 802.82,243.67 727.13,194.16 C681.77,164.50 630.20,148.97 576.00,148.67 C555.37,148.55 553.92,148.91 548.19,155.44 C539.85,164.93 542.68,180.32 553.66,185.18 C557.26,186.77 561.77,187.36 575.84,188.09 C585.55,188.59 598.90,189.70 605.50,190.55 C674.22,199.45 737.55,239.36 776.76,298.46 C784.50,310.12 796.27,332.66 801.37,345.57 C809.09,365.10 814.91,390.97 816.99,415.00 C818.33,430.52 819.17,433.86 822.79,438.17 C828.08,444.44 839.24,446.88 846.63,443.37 ZM 327.19 440.90 C328.32,440.29 331.23,438.29 333.64,436.44 C336.06,434.60 341.14,431.46 344.94,429.46 C350.55,426.51 352.12,425.14 353.31,422.17 C355.19,417.43 357.35,407.01 356.59,406.26 C354.48,404.14 335.45,413.51 328.49,420.10 L 323.29 425.02 L 317.41 419.45 C314.17,416.39 308.82,412.58 305.51,410.97 C298.89,407.76 290.41,405.25 289.44,406.22 C288.64,407.03 292.63,422.84 294.08,424.59 C294.68,425.32 298.56,427.75 302.68,429.97 C306.81,432.20 312.05,435.53 314.34,437.37 C320.28,442.17 323.28,442.99 327.19,440.90 ZM 771.70 438.27 C773.73,437.22 776.75,434.68 778.42,432.62 C780.99,429.44 781.50,427.86 781.83,421.99 C783.10,399.60 774.56,363.85 761.67,337.50 C732.82,278.56 678.13,237.37 613.50,225.93 C597.40,223.08 568.07,222.63 563.50,225.16 C559.54,227.36 555.38,231.82 554.06,235.32 C551.47,242.19 553.69,252.78 558.64,257.13 C563.29,261.21 567.07,262.14 582.82,263.08 C613.03,264.89 631.20,269.68 655.00,282.12 C683.08,296.79 706.29,319.59 721.84,347.77 C732.70,367.44 738.55,386.00 741.46,410.00 C742.36,417.42 743.36,424.62 743.68,426.00 C746.43,437.88 760.54,444.07 771.70,438.27 ZM 693.50 434.88 C698.66,433.46 704.57,427.29 706.08,421.75 C708.90,411.44 703.16,384.12 694.48,366.50 C679.71,336.53 654.67,314.54 623.40,304.09 C611.45,300.09 604.00,299.02 588.20,299.01 C574.08,299.00 571.54,299.63 567.30,304.17 C560.00,311.98 560.61,324.70 568.62,332.19 C572.69,335.98 575.54,336.83 588.27,338.01 C612.83,340.30 626.74,346.41 642.36,361.76 C656.89,376.04 663.38,389.39 666.45,411.31 C668.31,424.62 670.89,429.55 677.91,433.22 C683.66,436.22 687.26,436.61 693.50,434.88 ZM 471.43 429.43 C472.29,428.56 473.00,426.54 473.00,424.93 C473.00,422.54 472.58,422.00 470.70,422.00 C469.43,422.00 467.86,422.54 467.20,423.20 C465.62,424.78 465.66,429.69 467.25,430.34 C469.32,431.17 469.79,431.07 471.43,429.43 ZM 328.34 414.43 C330.63,412.47 335.72,409.28 339.66,407.33 C347.67,403.36 347.71,403.29 348.66,391.75 L 349.30 384.00 L 346.80 384.00 C343.78,384.00 334.01,390.17 328.04,395.85 C325.64,398.13 323.47,400.00 323.22,400.00 C322.97,400.00 320.16,397.59 316.97,394.64 C310.36,388.51 302.87,384.00 299.32,384.00 C296.95,384.00 296.91,384.14 297.50,390.25 C298.73,403.13 298.55,402.74 304.80,405.93 C307.93,407.52 313.42,410.89 317.00,413.41 C320.58,415.92 323.65,417.98 323.84,417.99 C324.03,418.00 326.05,416.40 328.34,414.43 ZM 329.47 388.68 L 334.38 384.36 L 332.07 378.19 C330.80,374.79 328.44,369.94 326.83,367.40 C323.98,362.90 323.85,362.83 321.94,364.56 C319.42,366.83 313.00,379.62 313.00,382.35 C313.00,384.78 320.70,393.00 322.99,393.00 C323.85,393.00 326.76,391.06 329.47,388.68 ZM 315.55 303.90 C316.94,301.17 320.05,290.69 322.48,280.62 C330.94,245.58 338.40,231.61 360.36,209.69 C380.81,189.28 400.68,177.82 427.22,171.11 C443.22,167.07 458.30,165.57 475.40,166.33 C487.61,166.87 493.43,167.73 511.00,171.60 C513.31,172.11 513.72,171.62 516.20,165.33 C517.67,161.57 522.07,150.41 525.96,140.52 C529.85,130.64 532.83,122.00 532.57,121.33 C531.49,118.51 507.69,112.68 490.50,111.02 C456.50,107.73 425.98,111.59 398.00,122.69 C361.38,137.23 331.72,157.73 306.94,185.63 C292.14,202.30 283.48,215.86 277.86,231.17 C274.07,241.50 274.30,248.04 278.83,258.50 C287.94,279.54 308.73,311.52 311.99,309.51 C312.57,309.15 314.17,306.63 315.55,303.90 ZM 370.21 836.49 C364.30,833.92 362.37,824.66 366.45,818.44 C368.43,815.41 375.15,813.31 378.77,814.59 C382.33,815.84 386.00,821.48 386.00,825.70 C386.00,830.29 383.59,834.64 380.03,836.48 C376.44,838.34 374.47,838.34 370.21,836.49 ZM 644.76 836.43 C639.30,833.47 637.57,826.36 640.75,820.01 C644.11,813.32 651.66,812.01 657.47,817.10 C660.71,819.95 661.00,820.66 661.00,825.70 C661.00,830.62 660.64,831.56 657.60,834.60 C653.79,838.41 649.53,839.02 644.76,836.43 ZM 492.00 828.94 C492.00,827.17 496.19,818.00 497.00,818.00 C497.81,818.00 502.00,827.17 502.00,828.94 C502.00,829.55 499.87,830.00 497.00,830.00 C494.13,830.00 492.00,829.55 492.00,828.94 ZM 683.02 769.17 C679.07,765.23 678.63,760.19 679.22,725.76 C679.67,698.87 679.84,696.68 681.70,694.18 C683.36,691.96 684.61,691.45 688.99,691.19 C693.61,690.92 694.63,691.23 697.14,693.63 L 700.00 696.37 L 700.00 732.11 L 700.00 767.84 L 696.63 769.92 C691.73,772.95 686.51,772.66 683.02,769.17 ZM 182.05 748.25 C182.14,741.60 189.47,699.68 190.61,699.30 C191.25,699.08 191.98,700.75 192.34,703.21 C192.68,705.57 194.32,716.00 195.98,726.40 C197.64,736.79 199.00,746.81 199.00,748.65 L 199.00 752.00 L 190.50 752.00 L 182.00 752.00 L 182.05 748.25 ZM 249.00 709.00 L 249.00 692.00 L 255.58 692.00 C261.51,692.00 262.44,692.28 265.08,694.92 C267.96,697.80 268.00,698.01 268.00,709.00 C268.00,719.99 267.96,720.20 265.08,723.08 C262.44,725.72 261.51,726.00 255.58,726.00 L 249.00 726.00 L 249.00 709.00 ZM 557.20 728.80 C556.36,727.96 556.00,722.28 556.00,709.67 L 556.00 691.73 L 563.09 692.24 C573.15,692.96 573.43,693.37 573.84,708.26 C574.27,723.92 573.29,727.55 568.22,728.96 C563.25,730.34 558.67,730.27 557.20,728.80 ZM 619.75 729.44 C619.34,729.01 619.00,720.42 619.00,710.33 L 619.00 692.00 L 624.94 692.00 C629.76,692.00 631.41,692.45 633.65,694.37 L 636.41 696.75 L 636.45 710.85 C636.50,727.78 636.06,728.61 626.48,729.60 C623.19,729.93 620.16,729.86 619.75,729.44 ZM 747.00 708.88 L 747.00 691.77 L 753.52 692.18 C763.06,692.79 764.29,694.33 764.82,706.37 C765.49,721.84 762.79,726.00 752.05,726.00 L 747.00 726.00 L 747.00 708.88 ZM 245.00 530.00 C244.98,528.20 240.26,525.72 239.75,527.25 C239.56,527.81 237.94,526.92 236.14,525.28 L 232.87 522.29 L 234.48 516.08 C235.36,512.67 236.33,506.87 236.62,503.19 C236.98,498.73 238.21,494.17 240.31,489.50 C243.58,482.25 244.08,477.64 242.65,468.00 L 241.99 463.50 L 243.74 467.00 C245.06,469.62 245.47,472.69 245.36,479.26 C245.24,487.65 245.33,488.04 247.56,488.61 C249.56,489.11 249.73,489.46 248.72,491.07 C247.72,492.68 248.08,493.50 251.21,496.73 C253.23,498.80 255.38,501.83 255.99,503.46 C257.76,508.15 255.26,520.00 252.50,520.00 C251.81,520.00 250.97,521.24 250.63,522.75 C249.91,525.99 245.02,532.28 245.00,530.00 ZM 428.63 529.28 C427.00,528.87 426.85,528.17 427.44,523.65 C428.12,518.52 430.23,514.00 431.95,514.00 C433.23,514.00 437.00,518.99 437.00,520.68 C437.00,521.46 435.88,523.21 434.51,524.58 C433.14,525.95 432.13,527.56 432.26,528.16 C432.55,529.48 431.14,529.92 428.63,529.28 ZM 219.00 526.50 C219.00,525.66 218.46,524.10 217.80,523.04 C216.84,521.51 216.94,519.29 218.30,512.22 C219.23,507.33 220.00,499.40 220.00,494.61 L 220.00 485.88 L 215.40 481.70 C212.87,479.39 210.10,476.17 209.26,474.53 C208.06,472.22 209.36,473.07 214.98,478.27 C218.97,481.97 222.86,485.00 223.62,485.00 C224.49,485.00 225.04,483.80 225.10,481.75 C225.19,478.60 225.24,478.64 226.62,483.00 C228.95,490.35 230.46,511.99 229.19,519.65 C228.59,523.27 227.97,526.34 227.80,526.48 C227.64,526.61 225.59,527.01 223.25,527.37 C219.82,527.90 219.00,527.73 219.00,526.50 ZM 257.00 524.90 C257.00,523.19 258.68,516.86 260.73,510.84 C264.40,500.08 264.44,499.83 262.73,496.86 C259.34,490.95 260.24,488.66 267.94,483.54 C276.17,478.07 279.20,473.68 279.80,466.34 C280.30,460.38 282.00,459.00 282.00,464.56 C282.00,472.57 280.04,476.85 273.90,482.25 L 268.06 487.39 L 270.59 490.71 C278.84,501.53 282.55,520.77 277.05,524.20 C276.03,524.84 275.43,525.95 275.71,526.67 C276.10,527.70 274.63,527.94 269.11,527.78 C262.72,527.58 261.99,527.36 261.95,525.53 C261.90,523.58 261.84,523.59 260.33,525.75 C258.16,528.86 257.00,528.56 257.00,524.90 ZM 420.00 500.29 C416.17,498.89 414.00,495.65 414.00,491.33 C414.00,487.02 415.17,485.74 416.70,488.38 C418.17,490.91 424.46,493.99 428.17,494.00 C430.64,494.00 432.83,493.18 434.82,491.50 C437.16,489.53 438.90,489.00 443.01,489.00 C447.72,489.00 448.61,488.63 452.00,485.24 C454.98,482.26 456.00,480.23 456.94,475.49 C458.87,465.70 459.60,464.94 462.66,469.61 C466.77,475.87 463.33,492.13 457.60,493.56 C456.29,493.89 454.28,495.24 453.14,496.55 C450.68,499.38 447.12,500.46 442.99,499.61 C441.34,499.28 438.71,498.73 437.13,498.41 C435.38,498.04 433.06,498.43 431.18,499.41 C428.16,500.97 422.97,501.38 420.00,500.29 Z" fill="rgb(254,254,254)"/>
</g>
</svg>